<?xml version="1.0" standalone="no"?>
<!DOCTYPE svg PUBLIC "-//W3C//DTD SVG 20010904//EN"
 "http://www.w3.org/TR/2001/REC-SVG-20010904/DTD/svg10.dtd">
<svg version="1.0" xmlns="http://www.w3.org/2000/svg"
 width="1600.000000pt" height="1600.000000pt" viewBox="0 0 1600.000000 1600.000000"
 preserveAspectRatio="xMidYMid meet">
<metadata>
Created by potrace 1.14, written by Peter Selinger 2001-2017
</metadata>
<g transform="translate(0.000000,1600.000000) scale(0.100000,-0.100000)"
fill="#000000" stroke="none">
<path d="M10524 11872 c2 -4 -63 -6 -145 -6 l-149 2 -1 -57 c-1 -31 -3 -76 -5
-101 -10 -107 -9 -157 2 -180 6 -14 10 -36 9 -50 -2 -14 -4 -43 -4 -65 -1 -30
-4 -36 -11 -25 -7 11 -10 4 -10 -27 0 -23 4 -44 9 -47 5 -3 9 -22 9 -41 0 -19
-4 -35 -9 -35 -5 0 -9 -11 -9 -25 0 -14 4 -25 9 -25 5 0 9 -53 10 -117 0 -65
4 -129 7 -143 10 -42 15 -288 5 -294 -11 -7 -10 -4 -24 -963 -3 -183 -2 -331
3 -328 11 7 32 -129 24 -161 -10 -41 -11 -254 0 -254 4 0 6 -33 2 -72 -9 -118
-10 -130 -3 -198 6 -65 6 -65 -7 -25 l-14 40 -2 -40 c-1 -22 -2 -55 -2 -72 0
-18 -5 -33 -10 -33 -5 0 -7 -4 -4 -9 3 -5 6 -40 7 -77 1 -38 6 -72 12 -75 5
-4 6 -12 1 -20 -9 -15 -15 -274 -13 -534 1 -175 1 -195 0 -505 -1 -131 3 -250
8 -269 6 -18 8 -61 6 -95 -3 -33 -7 -93 -9 -133 -3 -39 -10 -82 -16 -94 -10
-17 -9 -20 2 -14 10 6 10 5 1 -5 -6 -7 -9 -19 -6 -28 5 -11 3 -13 -7 -7 -10 6
-12 4 -7 -8 3 -10 2 -17 -3 -17 -6 0 -10 -10 -10 -23 0 -13 -4 -27 -8 -32 -5
-6 -19 -34 -31 -64 -46 -108 -220 -310 -317 -367 -46 -27 -56 -37 -26 -28 11
4 9 -1 -8 -15 -14 -12 -35 -24 -47 -27 -13 -3 -21 -9 -19 -13 2 -3 -14 -5 -37
-4 -23 1 -34 0 -24 -3 9 -3 17 -10 17 -15 0 -14 -27 -11 -43 6 -12 11 -16 12
-19 3 -3 -9 -10 -8 -22 5 -10 10 -21 16 -23 13 -3 -3 2 -12 11 -21 21 -22 21
-22 -19 -27 -19 -2 -35 0 -35 4 0 4 12 9 28 9 l27 1 -30 8 c-16 4 -22 8 -12 9
26 2 20 16 -9 19 -123 10 -321 97 -392 172 -48 52 -42 46 -105 106 -26 26 -61
72 -78 103 -16 31 -27 45 -23 32 9 -35 -12 -18 -36 29 -30 59 -52 129 -44 142
4 7 3 8 -4 4 -13 -8 -28 56 -17 73 3 6 2 11 -3 11 -6 0 -11 35 -11 78 -2 106
10 233 20 226 5 -3 7 -16 5 -30 -3 -13 -1 -22 3 -20 10 7 8 77 -2 94 -5 7 -14
9 -20 5 -7 -4 -6 0 2 10 9 11 10 17 2 17 -7 0 -11 38 -11 122 0 125 3 142 14
74 12 -73 17 -52 14 51 -3 96 -9 114 -22 68 -5 -19 0 49 10 122 7 58 7 207 0
283 -8 76 -15 103 -17 59 -1 -22 -1 -22 -10 5 -13 45 -4 207 13 217 10 6 10 9
1 9 -7 0 -13 10 -12 23 0 21 1 21 9 2 7 -14 8 -9 5 20 -8 63 -13 494 -6 455
13 -74 18 3 14 245 -1 138 -3 342 -4 455 0 112 -4 209 -9 215 -11 14 -25 681
-17 823 0 6 4 12 8 12 4 0 4 13 0 28 -7 22 -8 337 -1 337 7 0 6 36 -2 41 -6 4
-5 10 3 15 11 7 11 9 1 9 -7 0 -10 4 -7 10 3 5 8 98 10 205 4 160 2 195 -9
195 -11 0 -13 53 -12 299 l1 299 -168 1 c-96 0 -176 5 -187 11 -11 6 -68 10
-132 8 -62 -1 -129 1 -148 4 -20 4 -41 1 -49 -5 -12 -9 -13 -9 -7 1 4 7 1 12
-9 12 -9 0 -14 -4 -11 -8 3 -5 -162 -9 -367 -10 -205 -1 -388 -4 -407 -6 -19
-2 -106 -4 -192 -5 -140 -1 -157 -3 -161 -18 -2 -10 -3 -6 -2 10 1 15 -2 27
-7 27 -4 0 -8 -102 -8 -227 0 -126 0 -289 -1 -363 -3 -246 2 -530 9 -531 4 0
21 -2 37 -5 38 -5 139 -7 185 -4 l35 3 -35 7 c-19 4 52 6 158 5 107 -1 195 2
198 7 3 5 11 5 18 -1 7 -6 16 -8 20 -3 4 4 38 7 74 7 l67 0 2 -130 c1 -71 6
-141 11 -155 5 -14 7 -52 5 -85 -5 -81 -5 -85 -13 -85 -8 0 -14 -185 -10 -310
3 -111 3 -195 0 -305 -2 -94 7 -156 20 -135 4 6 6 -9 5 -34 -1 -26 2 -49 6
-52 5 -3 9 -11 9 -17 0 -7 -4 -6 -10 3 -7 11 -9 4 -9 -25 1 -35 2 -37 9 -15
l8 25 1 -27 c1 -16 -4 -28 -11 -28 -10 0 -10 -2 -1 -8 8 -5 10 -33 6 -92 -3
-47 -5 -105 -5 -130 1 -39 0 -42 -9 -20 -5 13 -10 56 -11 95 -1 38 -4 79 -8
90 -4 11 -8 -149 -8 -355 1 -216 5 -383 10 -393 5 -10 9 -42 9 -70 0 -60 0
-161 2 -450 2 -150 5 -206 13 -203 13 5 17 -63 16 -259 -1 -227 -3 -281 -13
-350 -20 -141 -12 -536 12 -612 6 -18 7 -38 3 -44 -4 -8 -3 -9 4 -5 7 4 12 0
13 -11 1 -29 7 -54 14 -61 4 -4 4 13 1 38 -15 105 -18 155 -11 148 4 -4 9 -24
11 -45 2 -21 13 -81 25 -133 76 -339 247 -672 463 -903 43 -45 34 -48 -19 -5
-22 17 10 -20 70 -82 100 -102 279 -250 304 -250 5 0 22 -15 38 -34 28 -34 71
-59 193 -114 36 -16 86 -39 111 -50 70 -32 132 -52 142 -45 7 4 -37 31 -63 37
-47 12 -60 18 -60 26 0 5 -8 7 -17 4 -15 -5 -16 -4 -3 5 13 9 13 11 -2 11 -9
0 -19 4 -22 9 -4 5 27 -3 68 -17 41 -15 70 -30 64 -33 -6 -4 6 -12 26 -19 20
-6 34 -15 31 -20 -3 -5 6 -7 21 -4 16 3 23 1 19 -6 -3 -5 0 -7 9 -4 8 3 45 -1
83 -10 37 -8 89 -18 115 -21 25 -3 52 -13 59 -21 9 -11 15 -12 26 -3 11 9 12
9 8 -4 -6 -13 -1 -14 29 -7 19 4 37 6 39 4 8 -8 53 -11 62 -4 9 8 56 14 175
25 78 7 134 16 145 24 5 4 37 18 70 31 33 13 90 38 126 57 36 18 71 33 77 33
7 0 12 4 12 8 0 15 80 53 98 47 11 -3 29 3 43 13 13 10 56 37 94 60 60 35 144
96 108 77 -30 -15 -9 4 42 40 31 21 59 43 63 50 4 6 16 18 28 26 31 21 154
164 154 179 0 8 17 -6 37 -31 68 -80 136 -149 146 -149 6 0 -4 16 -23 35 -48
50 -31 44 21 -8 24 -23 60 -55 79 -71 31 -25 32 -26 5 -11 -16 10 -40 27 -52
38 -13 11 -23 16 -23 11 0 -5 21 -24 46 -43 25 -19 67 -54 92 -78 25 -24 47
-43 49 -43 2 0 40 -22 84 -50 78 -48 107 -61 94 -40 -9 15 22 1 90 -39 135
-80 286 -145 358 -156 20 -3 53 -7 73 -10 19 -3 65 -7 101 -10 36 -3 73 -9 81
-14 18 -10 92 -3 109 11 7 5 14 5 18 -2 4 -6 13 -7 23 -1 9 4 23 6 31 3 8 -3
11 0 7 6 -4 7 8 13 31 17 88 14 210 39 233 48 14 6 27 11 30 12 30 8 50 18 46
23 -3 3 22 16 57 29 34 13 75 30 91 39 16 8 31 12 34 10 2 -3 -7 -11 -21 -17
-15 -7 -24 -15 -22 -19 2 -4 -8 -5 -23 -3 -22 4 -24 2 -12 -7 13 -10 13 -11
-2 -6 -10 3 -18 1 -18 -4 0 -5 -11 -12 -25 -16 -14 -3 -25 -10 -25 -15 0 -5
-6 -6 -14 -3 -7 3 -16 -2 -19 -10 -4 -10 -13 -13 -24 -9 -14 4 -15 3 -7 -6 12
-13 26 -8 139 44 17 8 50 23 75 33 159 70 217 102 228 127 6 14 23 30 38 35
57 22 312 241 372 320 l27 35 -50 -40 c-41 -32 -45 -34 -25 -10 14 16 34 38
45 49 38 39 122 150 179 238 87 134 168 301 217 449 24 74 49 137 54 141 6 5
6 8 -2 8 -8 0 -9 9 -2 33 11 38 15 62 24 137 4 30 9 57 12 60 5 5 0 -68 -12
-160 -3 -25 -3 -38 1 -30 3 8 8 22 11 30 4 8 8 28 10 45 3 16 9 37 14 47 5 9
12 45 16 80 7 73 6 477 -3 688 -10 220 -8 431 2 438 5 4 10 79 11 167 2 354 8
560 16 566 4 3 9 178 11 390 3 352 -2 414 -18 255 -3 -33 -8 -61 -10 -63 -6
-7 -12 93 -12 189 1 47 -3 81 -7 75 -5 -7 -5 -1 -1 13 4 14 7 58 6 99 -1 74 4
88 14 35 3 -16 7 -31 10 -33 4 -5 7 126 3 234 -1 39 -1 84 0 100 6 88 6 243
-1 345 -12 169 -15 280 -8 280 3 0 5 63 5 139 0 79 4 137 9 134 5 -4 6 42 2
108 -10 189 -19 490 -20 744 l-1 240 -35 6 c-19 4 -107 5 -195 3 -104 -3 -155
-1 -145 5 10 7 -7 9 -53 8 -37 -1 -67 -6 -67 -10 0 -4 -48 -5 -106 -2 -69 4
-110 2 -119 -5 -8 -6 -79 -11 -184 -12 l-171 -1 -1 -291 c-1 -160 -1 -294 0
-298 0 -5 -5 -8 -11 -8 -10 0 -13 -45 -14 -190 -1 -104 2 -188 5 -185 4 2 7
-5 7 -15 0 -10 -4 -16 -8 -14 -4 3 -8 -9 -8 -26 0 -21 4 -29 12 -24 7 5 8 3 3
-6 -7 -11 -10 -95 -5 -117 6 -21 5 -40 -2 -54 -4 -9 -4 -20 0 -23 9 -10 10
-106 1 -106 -4 0 -7 18 -6 40 1 22 -4 45 -10 51 -8 8 -10 -49 -8 -206 2 -119
6 -219 9 -222 3 -4 6 36 7 88 0 109 7 178 21 199 8 14 6 -122 -7 -390 -1 -41
-4 -144 -5 -227 -1 -84 -6 -156 -11 -159 -5 -3 -6 -11 -2 -17 14 -22 14 -49 1
-41 -8 5 -7 0 2 -11 9 -12 10 -16 2 -11 -10 6 -12 -35 -12 -201 0 -114 -2
-317 -4 -450 -5 -215 0 -275 17 -230 3 6 4 2 4 -10 -1 -12 -4 -20 -8 -17 -12
7 -16 -18 -16 -121 -1 -76 1 -90 7 -60 5 25 7 -26 5 -132 -1 -95 2 -173 6
-173 5 0 9 -5 9 -11 0 -5 -4 -8 -9 -4 -11 6 -7 -28 5 -47 11 -17 12 -178 2
-184 -4 -3 -8 2 -8 10 0 9 -5 16 -11 16 -6 0 -10 -25 -9 -62 1 -35 1 -110 1
-168 -1 -115 6 -217 16 -233 4 -7 -1 -8 -13 -4 -18 7 -18 6 -1 -7 13 -10 15
-15 5 -18 -9 -3 -13 -30 -14 -89 -1 -46 -3 -137 -4 -202 -1 -65 1 -121 4 -124
3 -4 6 1 6 10 0 10 4 17 9 17 5 0 7 -9 4 -20 -3 -11 -11 -20 -17 -20 -7 0 -11
-14 -9 -32 4 -85 8 -106 15 -102 4 3 8 0 8 -5 0 -6 -4 -11 -10 -11 -5 0 -10
-8 -10 -17 0 -14 2 -15 9 -4 5 7 10 9 13 5 4 -8 2 -109 -2 -109 -1 0 -4 -20
-6 -44 -2 -24 -9 -50 -16 -59 -10 -12 -10 -14 -1 -8 9 5 11 2 7 -8 -3 -9 -9
-14 -13 -12 -3 2 -7 -6 -7 -19 -2 -30 -53 -135 -66 -135 -5 0 -7 10 -3 23 3
12 -7 -1 -22 -30 -15 -29 -55 -81 -89 -115 -33 -35 -65 -70 -70 -78 -11 -19
-104 -95 -104 -85 0 3 -24 -7 -52 -23 -70 -40 -232 -87 -318 -93 -28 -2 -24
-4 20 -9 l55 -7 -60 -2 c-33 0 -70 -4 -82 -7 -27 -7 -32 12 -5 20 9 2 1 4 -18
4 -39 -1 -119 40 -100 52 7 4 -9 19 -42 38 -122 69 -291 280 -344 429 -10 29
-23 49 -28 46 -5 -4 -7 1 -3 10 4 10 2 17 -4 17 -6 0 -9 9 -6 20 3 11 1 20 -4
20 -5 0 -9 5 -9 11 0 5 6 7 13 3 8 -5 7 -2 -2 9 -15 19 -30 175 -24 247 3 25
7 200 9 390 3 190 9 347 13 350 5 3 6 14 4 25 -2 11 -7 153 -10 315 -4 201 -9
297 -17 303 -8 5 -7 9 2 15 14 10 24 162 10 162 -4 0 -8 22 -8 49 0 27 -5 62
-11 78 -11 26 -14 536 -4 618 1 17 4 41 4 55 1 19 3 22 10 10 6 -8 7 -18 4
-24 -3 -5 -1 -6 4 -3 7 4 9 46 7 109 -1 57 -5 182 -8 278 -3 96 -8 264 -12
373 -5 149 -4 197 5 197 7 0 9 5 5 11 -3 6 -8 84 -10 173 -1 88 -8 190 -14
226 -15 90 2 350 23 350 5 0 5 5 -2 13 -8 10 -7 17 1 25 7 7 8 12 2 12 -7 0
-7 25 -2 72 4 40 3 77 -1 82 -9 11 -15 126 -12 226 1 30 4 134 7 231 l5 177
-148 1 c-185 3 -163 3 -448 1 -132 -1 -259 1 -283 4 -23 3 -41 2 -38 -2z
m-3194 -62 c0 -5 -4 -10 -10 -10 -5 0 -10 5 -10 10 0 6 5 10 10 10 6 0 10 -4
10 -10z m895 -210 c3 -5 -1 -10 -9 -10 -9 0 -16 5 -16 10 0 6 4 10 9 10 6 0
13 -4 16 -10z m425 0 c0 -5 -4 -10 -10 -10 -5 0 -10 5 -10 10 0 6 5 10 10 10
6 0 10 -4 10 -10z m4380 0 c0 -5 -4 -10 -10 -10 -5 0 -10 5 -10 10 0 6 5 10
10 10 6 0 10 -4 10 -10z m430 0 c0 -5 -5 -10 -11 -10 -5 0 -7 5 -4 10 3 6 8
10 11 10 2 0 4 -4 4 -10z m227 -46 c-3 -3 -12 -4 -19 -1 -8 3 -5 6 6 6 11 1
17 -2 13 -5z m-2847 -13 c0 -6 -4 -13 -10 -16 -5 -3 -10 1 -10 9 0 9 5 16 10
16 6 0 10 -4 10 -9z m-2625 -41 c3 -5 -3 -10 -14 -10 -12 0 -21 5 -21 10 0 6
6 10 14 10 8 0 18 -4 21 -10z m5260 0 c-3 -5 -13 -10 -21 -10 -8 0 -14 5 -14
10 0 6 9 10 21 10 11 0 17 -4 14 -10z m-5517 -67 c-2 -10 -16 -24 -31 -33 -24
-13 -29 -13 -37 -1 -14 24 7 51 41 51 23 0 30 -4 27 -17z m5806 11 c20 -8 21
-43 2 -50 -18 -7 -66 24 -66 42 0 14 36 19 64 8z m-6374 -29 c0 -8 -7 -15 -15
-15 -16 0 -20 12 -8 23 11 12 23 8 23 -8z m1095 -85 c0 -7 -6 -15 -12 -17 -8
-3 -13 4 -13 17 0 13 5 20 13 18 6 -3 12 -11 12 -18z m4721 9 c3 -6 1 -16 -5
-22 -9 -9 -14 -8 -21 3 -9 15 -4 30 10 30 5 0 12 -5 16 -11z m-4748 -63 c-2
-10 -8 -13 -16 -7 -7 4 -10 15 -6 25 8 21 28 6 22 -18z m4772 -4 c0 -7 -4 -10
-10 -7 -5 3 -10 16 -10 28 0 18 2 19 10 7 5 -8 10 -21 10 -28z m-4975 18 c3
-5 1 -10 -4 -10 -6 0 -11 5 -11 10 0 6 2 10 4 10 3 0 8 -4 11 -10z m5165 0 c0
-5 -5 -10 -11 -10 -5 0 -7 5 -4 10 3 6 8 10 11 10 2 0 4 -4 4 -10z m212 -162
c-6 -6 -15 -8 -19 -4 -4 4 -1 11 7 16 19 12 27 3 12 -12z m-5577 2 c3 -5 2
-10 -4 -10 -5 0 -13 5 -16 10 -3 6 -2 10 4 10 5 0 13 -4 16 -10z m-837 -19 c3
-8 -1 -12 -9 -9 -7 2 -15 10 -17 17 -3 8 1 12 9 9 7 -2 15 -10 17 -17z m-119
-34 c8 -11 6 -18 -9 -32 -23 -21 -50 -13 -50 14 0 29 39 41 59 18z m1012 -105
c-4 -15 -14 -27 -22 -27 -16 0 -20 31 -6 58 14 29 37 3 28 -31z m5479 8 c4
-29 0 -40 -15 -40 -21 0 -35 40 -23 64 8 15 12 16 23 5 7 -8 14 -21 15 -29z
m-5720 -59 c0 -15 -48 -41 -64 -35 -27 10 0 44 34 44 17 0 30 -4 30 -9z m5984
-7 c16 -42 -9 -47 -44 -9 l-23 25 30 0 c19 0 33 -6 37 -16z m-5344 -58 c0 -11
-19 -15 -25 -6 -3 5 1 10 9 10 9 0 16 -2 16 -4z m4670 0 c0 -3 -4 -8 -10 -11
-5 -3 -10 -1 -10 4 0 6 5 11 10 11 6 0 10 -2 10 -4z m-5054 -387 c10 -17 -13
-36 -27 -22 -12 12 -4 33 11 33 5 0 12 -5 16 -11z m5442 -13 c3 -12 -1 -17
-10 -14 -7 3 -15 13 -16 22 -3 12 1 17 10 14 7 -3 15 -13 16 -22z m-5351 -372
c2 -6 -3 -18 -11 -29 -13 -18 -14 -18 -25 3 -7 13 -9 26 -6 31 7 12 38 7 42
-5z m5273 -8 c0 -31 -26 -41 -40 -16 -13 25 -13 28 8 33 30 8 32 7 32 -17z
m360 -160 c0 -3 -4 -8 -10 -11 -5 -3 -10 -1 -10 4 0 6 5 11 10 11 6 0 10 -2
10 -4z m-340 -28 c0 -16 -3 -19 -11 -11 -6 6 -8 16 -5 22 11 17 16 13 16 -11z
m-5330 8 c0 -2 -7 -9 -15 -16 -12 -10 -15 -10 -15 4 0 9 7 16 15 16 8 0 15 -2
15 -4z m-360 -107 c0 -4 -9 -13 -20 -19 -11 -6 -19 -16 -17 -22 1 -6 -4 -13
-10 -15 -20 -7 -16 54 4 65 18 11 43 5 43 -9z m6078 9 c17 -17 15 -55 -4 -62
-23 -9 -27 -8 -20 9 3 9 -1 18 -9 21 -18 7 -20 30 -2 37 19 8 22 8 35 -5z
m-5933 -98 c3 -5 1 -10 -4 -10 -6 0 -11 5 -11 10 0 6 2 10 4 10 3 0 8 -4 11
-10z m5755 0 c0 -5 -5 -10 -11 -10 -5 0 -7 5 -4 10 3 6 8 10 11 10 2 0 4 -4 4
-10z m-5380 -13 c0 -7 -7 -22 -15 -33 -12 -16 -14 -17 -15 -2 0 23 11 48 21
48 5 0 9 -6 9 -13z m5010 -7 c15 -28 2 -46 -16 -23 -7 10 -14 24 -14 31 0 19
18 14 30 -8z m-4750 -109 c0 -5 -7 -14 -16 -22 -8 -7 -13 -21 -11 -31 5 -19
-1 -22 -27 -12 -21 8 -21 58 0 78 12 12 20 13 35 6 10 -6 19 -14 19 -19z
m4525 3 c16 -22 7 -62 -16 -75 -16 -8 -19 -6 -19 14 0 13 -9 32 -20 42 -11 10
-17 22 -14 26 9 15 56 10 69 -7z m-2832 -127 c6 -17 -19 -52 -28 -38 -8 13 3
51 15 51 4 0 10 -6 13 -13z m1105 -35 c-3 -14 -6 -14 -16 6 -7 12 -10 27 -6
33 9 15 27 -16 22 -39z m-3500 13 c5 -23 -18 -65 -35 -65 -17 0 -18 61 -1 78
16 16 32 10 36 -13z m5900 13 c10 -13 15 -40 13 -65 -2 -20 -31 -15 -31 5 0
10 -5 23 -11 29 -13 13 -6 43 9 43 5 0 14 -6 20 -12z m-2461 -120 c-3 -8 -6
-5 -6 6 -1 11 2 17 5 13 3 -3 4 -12 1 -19z m-2757 -98 c0 -5 -4 -10 -9 -10 -6
0 -13 5 -16 10 -3 6 1 10 9 10 9 0 16 -4 16 -10z m4525 0 c-3 -5 -11 -10 -16
-10 -6 0 -7 5 -4 10 3 6 11 10 16 10 6 0 7 -4 4 -10z m-4298 -492 c-2 -13 -4
-3 -4 22 0 25 2 35 4 23 2 -13 2 -33 0 -45z m2610 -125 c-3 -10 -5 -2 -5 17 0
19 2 27 5 18 2 -10 2 -26 0 -35z m1433 -20 c-11 -17 -11 -17 -6 0 3 10 6 24 7
30 0 9 2 9 5 0 3 -7 0 -20 -6 -30z m-4145 -2 c16 -7 19 -18 20 -83 0 -57 -3
-74 -12 -67 -11 10 -83 126 -83 135 0 5 40 23 50 23 3 0 14 -4 25 -8z m4317
-10 c11 -9 -51 -130 -72 -141 -15 -8 -17 -4 -15 26 2 19 5 38 9 41 3 3 1 13
-4 23 -12 23 -2 58 19 63 18 5 52 -2 63 -12z m-5078 -129 c10 -16 -25 -52 -50
-52 -29 0 -29 4 -6 35 17 24 46 33 56 17z m5834 -23 c22 -27 22 -29 5 -29 -23
0 -48 19 -56 43 -10 28 25 19 51 -14z m-3465 -55 c11 -11 -3 -24 -18 -18 -8 4
-12 10 -9 15 6 11 18 12 27 3z m1059 -9 c0 -5 -5 -11 -11 -13 -6 -2 -11 4 -11
13 0 9 5 15 11 13 6 -2 11 -8 11 -13z m-2875 -11 c9 -25 -13 -40 -26 -16 -10
19 -6 32 11 32 5 0 11 -7 15 -16z m4702 -3 c8 -15 7 -20 -5 -25 -27 -10 -36 5
-25 42 3 9 22 -1 30 -17z m-4499 -17 c0 -8 -7 -14 -15 -14 -15 0 -21 21 -9 33
10 9 24 -2 24 -19z m4293 20 c9 -9 -4 -34 -18 -34 -11 0 -13 14 -6 38 2 4 18
2 24 -4z m-5189 -129 c-3 -8 -12 -11 -20 -8 -15 5 -18 16 -8 26 11 10 33 -4
28 -18z m496 21 c0 -3 -4 -8 -10 -11 -5 -3 -10 -1 -10 4 0 6 5 11 10 11 6 0
10 -2 10 -4z m235 -16 c-14 -15 -21 -17 -26 -8 -11 17 -2 28 23 28 21 0 21 -1
3 -20z m4624 11 c7 -5 10 -14 7 -20 -8 -13 -46 3 -46 19 0 12 20 13 39 1z
m231 -1 c0 -5 -4 -10 -10 -10 -5 0 -10 5 -10 10 0 6 5 10 10 10 6 0 10 -4 10
-10z m493 -4 c3 -8 3 -17 0 -20 -9 -9 -34 15 -27 25 8 13 21 11 27 -5z m-6001
-203 c21 -18 24 -44 6 -40 -7 1 -12 -4 -10 -11 2 -9 -7 -12 -30 -9 -42 4 -50
37 -16 61 28 20 27 20 50 -1z m5952 -2 c16 -14 22 -50 9 -52 -5 0 -18 -2 -30
-5 -13 -2 -23 1 -23 6 0 6 -7 10 -15 10 -9 0 -12 6 -8 18 15 41 36 49 67 23z
m-5404 -1 c0 -5 -4 -10 -9 -10 -6 0 -13 5 -16 10 -3 6 1 10 9 10 9 0 16 -4 16
-10z m4820 0 c0 -5 -5 -10 -11 -10 -5 0 -7 5 -4 10 3 6 8 10 11 10 2 0 4 -4 4
-10z m-4660 -45 c0 -8 -7 -15 -15 -15 -8 0 -15 7 -15 15 0 8 7 15 15 15 8 0
15 -7 15 -15z m4508 3 c-6 -18 -28 -21 -28 -4 0 9 7 16 16 16 9 0 14 -5 12
-12z m-4935 -38 c-4 -16 -8 -18 -20 -9 -11 10 -11 14 -1 20 21 14 26 10 21
-11z m5354 12 c7 -5 9 -13 4 -21 -7 -11 -11 -9 -20 8 -12 21 -6 27 16 13z
m-5343 -107 c-4 -8 -11 -15 -16 -15 -6 0 -5 6 2 15 7 8 14 15 16 15 2 0 1 -7
-2 -15z m5336 -5 c0 -5 -4 -10 -9 -10 -6 0 -13 5 -16 10 -3 6 1 10 9 10 9 0
16 -4 16 -10z m-5040 -90 c0 -5 -2 -10 -4 -10 -3 0 -8 5 -11 10 -3 6 -1 10 4
10 6 0 11 -4 11 -10z m4745 0 c3 -5 1 -10 -4 -10 -6 0 -11 5 -11 10 0 6 2 10
4 10 3 0 8 -4 11 -10z m-2378 -46 c-3 -3 -12 -4 -19 -1 -8 3 -5 6 6 6 11 1 17
-2 13 -5z m-2647 -8 c0 -3 -4 -8 -10 -11 -5 -3 -10 -1 -10 4 0 6 5 11 10 11 6
0 10 -2 10 -4z m130 -6 c0 -5 -2 -10 -4 -10 -3 0 -8 5 -11 10 -3 6 -1 10 4 10
6 0 11 -4 11 -10z m5040 0 c0 -5 -5 -10 -11 -10 -5 0 -7 5 -4 10 3 6 8 10 11
10 2 0 4 -4 4 -10z m130 0 c0 -5 -2 -10 -4 -10 -3 0 -8 5 -11 10 -3 6 -1 10 4
10 6 0 11 -4 11 -10z m-5050 -30 c0 -5 -7 -10 -15 -10 -8 0 -15 5 -15 10 0 6
7 10 15 10 8 0 15 -4 15 -10z m4804 -5 c-4 -8 -7 -15 -9 -15 -2 0 -5 7 -9 15
-3 9 0 15 9 15 9 0 12 -6 9 -15z m-4924 -25 c0 -5 -4 -10 -9 -10 -6 0 -13 5
-16 10 -3 6 1 10 9 10 9 0 16 -4 16 -10z m5050 1 c0 -6 -4 -13 -10 -16 -5 -3
-10 1 -10 9 0 9 5 16 10 16 6 0 10 -4 10 -9z m-5240 -21 c0 -5 -2 -10 -4 -10
-3 0 -8 5 -11 10 -3 6 -1 10 4 10 6 0 11 -4 11 -10z m2170 -30 c0 -5 -9 -15
-20 -22 -14 -9 -18 -19 -13 -36 5 -22 4 -23 -16 -13 -23 13 -23 39 -2 65 15
18 51 22 51 6z m1106 2 c17 -11 22 -35 13 -59 -11 -29 -33 -31 -24 -2 5 14 0
28 -16 45 -21 22 -21 24 -3 24 10 0 24 -4 30 -8z m-2971 -32 c-3 -5 -12 -7
-20 -3 -21 7 -19 13 6 13 11 0 18 -4 14 -10z m-640 -30 c3 -5 -1 -10 -10 -10
-9 0 -13 5 -10 10 3 6 8 10 10 10 2 0 7 -4 10 -10z m6095 -4 c0 -3 -4 -8 -10
-11 -5 -3 -10 -1 -10 4 0 6 5 11 10 11 6 0 10 -2 10 -4z m-5382 -23 c2 -8 -5
-13 -16 -13 -11 0 -22 -6 -25 -12 -4 -10 -7 -10 -18 0 -12 11 -11 16 6 28 22
17 46 15 53 -3z m4697 4 c27 -20 11 -39 -20 -25 -26 11 -30 20 -18 31 9 10 17
9 38 -6z m-4575 -12 c0 -8 -7 -15 -15 -15 -8 0 -15 7 -15 15 0 8 7 15 15 15 8
0 15 -7 15 -15z m4430 0 c0 -8 -7 -15 -15 -15 -8 0 -15 7 -15 15 0 8 7 15 15
15 8 0 15 -7 15 -15z m-4695 -25 c3 -5 -1 -10 -9 -10 -9 0 -16 5 -16 10 0 6 4
10 9 10 6 0 13 -4 16 -10z m4960 0 c3 -5 -1 -10 -9 -10 -9 0 -16 5 -16 10 0 6
4 10 9 10 6 0 13 -4 16 -10z m-5050 -41 c-6 -9 -35 -1 -35 10 0 4 3 11 7 14 8
9 34 -13 28 -24z m5140 1 c-5 -8 -11 -8 -17 -2 -6 6 -7 16 -3 22 5 8 11 8 17
2 6 -6 7 -16 3 -22z m-5510 -10 c3 -5 -1 -10 -10 -10 -9 0 -13 5 -10 10 3 6 8
10 10 10 2 0 7 -4 10 -10z m5882 -6 c-3 -3 -12 -4 -19 -1 -8 3 -5 6 6 6 11 1
17 -2 13 -5z m-5657 -63 c0 -6 -4 -13 -10 -16 -5 -3 -10 1 -10 9 0 9 5 16 10
16 6 0 10 -4 10 -9z m5426 -18 c-10 -10 -19 5 -10 18 6 11 8 11 12 0 2 -7 1
-15 -2 -18z m-711 -118 c0 -52 -3 -95 -7 -95 -10 0 -11 174 -1 183 3 4 7 7 7
7 1 0 1 -43 1 -95z m-4292 59 c11 -11 -3 -24 -18 -18 -8 4 -12 10 -9 15 6 11
18 12 27 3z m4587 -4 c0 -5 -7 -10 -16 -10 -8 0 -12 5 -9 10 3 6 10 10 16 10
5 0 9 -4 9 -10z m-2005 -40 c3 -6 -1 -7 -9 -4 -18 7 -21 14 -7 14 6 0 13 -4
16 -10z m-799 -42 c-3 -13 -6 -29 -6 -35 0 -7 -4 -13 -10 -13 -11 0 -13 30 -4
54 9 25 27 19 20 -6z m1018 -3 c7 -28 -2 -52 -14 -38 -4 4 -10 20 -14 36 -5
20 -3 27 8 27 7 0 17 -11 20 -25z m-3278 -75 c-1 -21 -6 -30 -18 -30 -18 0
-26 39 -11 53 16 16 30 5 29 -23z m5542 18 c19 -19 15 -48 -8 -48 -11 0 -20 6
-20 14 0 8 -3 21 -6 30 -7 19 16 22 34 4z m-426 -95 c10 -9 18 -28 18 -43 0
-22 -6 -29 -25 -33 -16 -3 -24 0 -22 7 2 6 -5 22 -15 36 -18 23 -18 25 -2 37
23 16 24 16 46 -4z m-4667 -3 c3 -5 -1 -19 -9 -31 -8 -12 -12 -27 -9 -35 8
-20 -37 -13 -49 9 -19 36 45 92 67 57z m4312 -82 c-2 -18 -4 -6 -4 27 0 33 2
48 4 33 2 -15 2 -42 0 -60z m-1447 8 c0 -3 -4 -8 -10 -11 -5 -3 -10 -1 -10 4
0 6 5 11 10 11 6 0 10 -2 10 -4z m-3175 -36 c3 -5 1 -10 -4 -10 -6 0 -11 5
-11 10 0 6 2 10 4 10 3 0 8 -4 11 -10z m5250 0 c3 -5 -1 -10 -9 -10 -9 0 -16
5 -16 10 0 6 4 10 9 10 6 0 13 -4 16 -10z m-4639 -505 c5 -12 10 -13 20 -4 11
9 15 7 20 -5 4 -9 5 -18 3 -20 -31 -23 -77 -43 -86 -38 -17 10 -4 55 13 48 7
-3 16 -1 19 4 4 6 1 10 -4 10 -6 0 -11 5 -11 10 0 16 20 12 26 -5z m4034 5 c0
-5 -5 -10 -12 -10 -6 0 -8 -3 -4 -7 4 -4 15 -8 23 -8 22 0 26 -17 10 -39 -14
-18 -15 -18 -35 2 -12 12 -29 22 -38 22 -22 0 -13 32 9 36 11 1 21 5 25 8 9 9
22 7 22 -4z m-4827 -165 c-6 -27 -28 -51 -37 -37 -9 15 5 51 23 55 9 3 17 5
17 6 1 0 -1 -10 -3 -24z m5631 -1 c4 -15 2 -32 -3 -37 -14 -14 -19 -8 -26 31
-7 40 19 45 29 6z m-2831 -61 c-3 -7 -6 -13 -8 -13 -2 0 -5 6 -8 13 -3 8 1 14
8 14 7 0 11 -6 8 -14z m1311 -151 c2 -4 -13 -6 -35 -4 -21 2 -39 6 -39 8 0 7
69 4 74 -4z m-2396 -9 c-15 -2 -42 -2 -60 0 -18 2 -6 4 27 4 33 0 48 -2 33 -4z
m2235 0 c-18 -2 -48 -2 -65 0 -18 2 -4 4 32 4 36 0 50 -2 33 -4z m-3025 -59
c-10 -10 -28 6 -28 24 0 15 1 15 17 -1 9 -9 14 -19 11 -23z m3776 12 c-7 -17
-34 -23 -34 -6 0 9 32 31 38 26 1 -2 0 -11 -4 -20z m-2990 -215 c10 -1 -1 -62
-13 -74 -14 -14 -58 0 -63 20 -10 42 11 64 52 57 8 -1 19 -3 24 -3z m2246 -6
c14 -9 13 -48 -2 -63 -21 -21 -54 -14 -66 13 -17 36 -15 53 6 58 20 4 48 1 62
-8z m-2251 -164 c8 -5 11 -16 6 -29 -3 -13 1 -37 11 -58 13 -27 14 -38 5 -43
-8 -5 -4 -16 15 -36 15 -16 22 -31 16 -33 -17 -5 -71 26 -88 53 -19 28 -21
104 -4 135 12 22 18 24 39 11z m2236 -20 c7 -24 0 -94 -13 -118 -15 -28 -44
-50 -74 -57 -34 -8 -34 -6 -2 29 18 20 22 30 14 35 -9 6 -8 14 5 34 12 18 16
37 12 61 -5 33 -4 35 23 35 20 0 31 -6 35 -19z m-1680 -81 c3 -5 1 -10 -4 -10
-6 0 -11 5 -11 10 0 6 2 10 4 10 3 0 8 -4 11 -10z m375 -36 c-25 -25 -65 -59
-90 -76 -27 -18 -34 -20 -17 -6 15 13 52 47 83 76 68 64 84 69 24 6z m-1040
-164 c0 -5 -2 -10 -4 -10 -3 0 -8 5 -11 10 -3 6 -1 10 4 10 6 0 11 -4 11 -10z
m2420 6 c0 -11 -19 -15 -25 -6 -3 5 1 10 9 10 9 0 16 -2 16 -4z m-3149 -173
c13 -17 13 -17 -6 -3 -11 8 -22 16 -24 17 -2 2 0 3 6 3 6 0 17 -8 24 -17z"/>
<path d="M8615 11850 c-4 -6 27 -10 87 -9 76 1 86 3 53 10 -56 11 -133 11
-140 -1z"/>
<path d="M12900 11849 c-23 -4 -2 -7 60 -8 65 0 90 2 80 9 -16 10 -83 10 -140
-1z"/>
<path d="M2622 11614 c0 -126 -2 -357 -5 -514 -3 -230 -1 -293 10 -327 9 -27
21 -43 31 -44 10 0 51 -2 92 -2 54 -2 74 -5 73 -14 -3 -15 1 -15 112 -15 l80
0 -2 -256 c-4 -440 -5 -583 -3 -717 1 -71 -1 -154 -4 -182 -3 -34 -1 -57 7
-65 9 -10 11 -45 6 -128 -4 -76 -6 -93 -7 -51 -1 35 -4 62 -7 60 -8 -8 -11
-178 -3 -173 13 8 9 -21 -4 -35 -10 -11 -10 -13 0 -7 9 5 12 -5 13 -41 0 -26
2 -57 4 -68 2 -11 5 -41 8 -67 4 -46 3 -47 -25 -46 -15 1 -28 5 -28 10 0 4 -3
7 -7 7 -5 -1 -10 0 -13 1 -12 4 -327 8 -343 3 -9 -2 -15 -9 -12 -14 7 -10 7
-145 0 -339 -8 -245 -12 -713 -6 -625 4 50 9 80 10 68 2 -13 5 -27 6 -33 1 -5
3 -60 4 -121 l1 -110 175 4 c131 3 180 1 193 -9 16 -11 17 -53 18 -566 1 -304
4 -564 8 -578 8 -31 10 -289 2 -297 -9 -10 -7 -45 2 -39 5 3 9 -1 9 -9 0 -8
-4 -12 -9 -9 -4 3 -8 0 -8 -5 0 -6 5 -11 10 -11 6 0 10 -14 10 -31 0 -16 -4
-28 -8 -25 -9 5 -8 -188 3 -389 9 -182 9 -185 23 -194 6 -4 12 -25 12 -46 3
-90 -2 -165 -11 -170 -5 -4 -9 -12 -9 -18 0 -7 4 -6 10 3 8 11 9 -5 6 -54 -2
-38 -9 -72 -14 -75 -6 -3 -12 -24 -15 -46 -3 -31 -4 -26 -5 21 -1 33 1 64 5
68 11 10 14 46 4 46 -19 0 -24 -42 -26 -220 l-2 -185 213 0 c118 0 214 2 214
6 0 6 171 3 211 -4 14 -3 54 1 87 8 34 7 64 10 66 7 3 -3 11 0 18 5 8 6 84 11
185 11 94 0 176 3 181 6 6 3 10 43 10 89 -1 120 11 197 28 190 12 -5 14 19 8
158 -4 90 -6 172 -6 182 0 9 -4 17 -9 17 -6 0 -8 -4 -5 -8 2 -4 1 -14 -5 -22
-13 -22 -12 21 2 57 17 46 14 271 -6 333 -4 14 -2 19 7 17 7 -2 10 -2 6 0 -5
3 -8 9 -8 14 0 6 6 7 13 3 9 -6 9 -4 -1 8 -7 9 -9 19 -4 22 5 3 5 31 1 63 -4
32 -10 126 -13 208 -3 83 -8 184 -10 225 l-4 75 13 -70 c7 -38 13 -65 15 -60
4 25 2 513 -2 521 -3 5 -6 137 -6 294 0 315 -1 328 -12 285 -6 -22 -8 -7 -10
55 -1 47 -3 96 -4 110 -4 36 21 50 82 48 50 -1 86 -15 39 -15 -12 0 -33 -1
-47 -3 -19 -2 -15 -4 15 -9 22 -4 48 -3 58 1 9 5 17 5 17 0 0 -4 16 -8 35 -8
19 0 35 4 35 8 0 5 -11 6 -25 4 -13 -3 -27 -1 -30 5 -4 5 102 7 262 5 261 -3
291 -7 388 -41 16 -6 17 -5 5 4 -24 17 4 13 67 -11 57 -21 141 -72 215 -131
l37 -29 27 21 c15 11 37 21 50 21 51 0 86 -76 47 -99 -46 -27 -46 -26 -11 -77
18 -27 34 -55 36 -63 2 -8 12 -25 22 -38 22 -28 60 -124 66 -168 3 -16 12 -61
20 -99 28 -131 31 -158 22 -256 -3 -25 0 -51 6 -59 8 -11 8 -13 -1 -7 -7 4
-13 2 -13 -3 0 -6 5 -11 10 -11 6 0 10 -70 10 -191 0 -124 -3 -188 -10 -184
-14 9 -12 -8 3 -24 8 -9 8 -12 0 -7 -8 5 -12 -34 -13 -151 -7 -599 -6 -873 1
-873 10 0 19 -45 23 -115 3 -53 -2 -78 -13 -70 -9 5 -6 -98 3 -141 l7 -31 237
3 c130 2 284 5 342 8 60 2 108 0 111 -6 10 -16 347 -26 358 -11 3 5 18 8 33 8
15 -1 29 4 31 10 2 5 5 50 6 100 1 49 5 93 7 97 3 4 -4 8 -14 8 -15 0 -19 5
-15 20 3 11 11 20 18 20 16 0 47 35 38 43 -3 4 -12 2 -20 -5 -11 -8 -17 -8
-26 2 -9 10 -9 11 1 6 6 -4 12 -2 12 3 0 6 -4 11 -10 11 -5 0 -10 11 -10 25 0
14 -4 25 -10 25 -5 0 -10 5 -10 11 0 5 5 7 11 3 8 -5 8 -1 0 14 -14 27 -14 35
2 26 9 -5 9 -4 1 5 -12 13 -8 142 6 201 l8 35 1 -39 c1 -22 3 -37 5 -35 10 10
19 539 9 539 -6 0 -10 45 -10 108 0 59 -3 172 -7 252 -11 240 -15 501 -8 496
12 -7 21 836 12 1097 -6 182 -15 127 -14 -86 1 -128 -1 -176 -6 -132 -4 47 -7
57 -8 31 -1 -22 -5 -36 -9 -32 -10 9 -11 806 -1 806 3 0 8 -6 11 -12 2 -7 5
30 6 82 1 52 4 163 6 245 12 444 13 534 5 575 -7 37 -8 31 -6 -40 1 -47 -2
-98 -6 -115 -4 -16 -6 70 -4 192 1 125 7 228 12 235 20 25 3 299 -26 432 -32
147 -128 413 -165 456 -19 23 -55 97 -76 157 -21 62 -44 98 -108 168 -25 28
-61 67 -79 89 -18 21 -36 36 -38 33 -3 -3 5 -14 17 -26 13 -12 18 -21 12 -21
-7 0 -22 14 -34 32 -13 17 -18 28 -11 24 71 -43 -220 242 -326 321 -118 87
-265 173 -247 143 3 -6 12 -10 19 -10 8 0 24 -9 37 -20 l24 -21 -40 17 c-22 9
-48 19 -58 21 -15 5 -16 8 -5 15 9 7 8 8 -6 4 -17 -6 -86 19 -254 90 -18 8
-39 14 -47 14 -7 0 -20 6 -28 14 -8 8 -34 17 -58 21 -95 13 -165 26 -189 35
-14 5 -155 12 -315 14 -159 3 -301 8 -315 12 -14 3 -101 7 -195 8 -300 5 -385
8 -385 15 0 3 -142 7 -316 9 -173 1 -313 -1 -311 -5 3 -5 -15 -9 -39 -10 -30
-1 -42 2 -38 9 5 8 -4 9 -27 5 -24 -5 -30 -4 -19 3 13 9 13 10 -1 10 -8 0 -21
-6 -28 -12 -8 -7 -11 -8 -8 -2 4 7 -8 11 -31 12 -20 0 -112 4 -203 8 l-166 7
-1 -229z m373 -64 c3 -5 1 -10 -4 -10 -6 0 -11 5 -11 10 0 6 2 10 4 10 3 0 8
-4 11 -10z m2115 -44 c0 -2 -3 -11 -6 -20 -9 -24 -33 -20 -27 4 4 16 33 30 33
16z m-1560 -16 c0 -5 -2 -10 -4 -10 -3 0 -8 5 -11 10 -3 6 -1 10 4 10 6 0 11
-4 11 -10z m-50 -55 c0 -8 -2 -15 -4 -15 -2 0 -6 7 -10 15 -3 8 -1 15 4 15 6
0 10 -7 10 -15z m1060 -80 c0 -9 -9 -15 -25 -15 -18 0 -23 4 -19 15 4 8 15 15
25 15 10 0 19 -7 19 -15z m-1572 -54 c3 -8 -1 -12 -9 -9 -7 2 -15 10 -17 17
-3 8 1 12 9 9 7 -2 15 -10 17 -17z m197 -71 c-5 -8 -11 -8 -17 -2 -6 6 -7 16
-3 22 5 8 11 8 17 2 6 -6 7 -16 3 -22z m2025 -131 c0 -4 -5 -11 -10 -14 -6 -4
-8 -11 -5 -16 4 -5 -1 -9 -10 -9 -19 0 -37 42 -23 51 13 8 48 -1 48 -12z
m-935 -39 c3 -5 1 -10 -4 -10 -6 0 -11 -7 -11 -15 0 -8 -6 -15 -12 -15 -23 0
-39 16 -32 33 7 18 49 23 59 7z m2005 -40 l24 -35 -27 24 c-15 14 -27 31 -27
39 0 9 1 13 3 11 2 -2 14 -20 27 -39z m-1123 -120 c-1 -11 -4 -20 -8 -20 -10
0 -20 30 -13 41 9 15 23 1 21 -21z m-761 -68 c-20 -21 -39 -7 -25 19 8 17 13
18 25 8 13 -11 13 -14 0 -27z m404 -29 c3 -3 -5 -13 -18 -24 -13 -10 -21 -23
-18 -28 7 -10 -19 -9 -30 2 -4 3 -1 20 6 37 10 25 17 29 34 24 11 -4 23 -9 26
-11z m978 -12 c12 -7 11 -13 -1 -37 -8 -16 -12 -41 -10 -56 4 -32 -11 -36 -39
-11 -20 18 -24 64 -8 94 11 20 36 24 58 10z m-833 -81 c3 -5 1 -10 -4 -10 -6
0 -11 5 -11 10 0 6 2 10 4 10 3 0 8 -4 11 -10z m-575 -8 c0 -5 17 -7 38 -5 20
2 100 6 177 8 147 6 210 -3 405 -55 41 -11 84 -20 95 -21 19 0 19 -1 1 -8 -14
-5 -16 -10 -8 -15 7 -4 17 -4 23 -1 6 4 17 -1 25 -11 9 -11 13 -13 9 -6 -3 6
-1 12 4 12 6 0 11 -4 11 -9 0 -5 22 -18 49 -30 68 -29 102 -60 183 -168 40
-53 74 -90 80 -87 7 4 8 2 4 -4 -4 -7 -3 -12 3 -12 12 0 53 -76 55 -100 1 -8
16 -62 34 -120 18 -58 38 -121 44 -140 14 -44 21 -215 8 -182 -13 31 -17 28
-15 -15 5 -86 22 -166 35 -158 5 3 12 0 16 -6 4 -8 3 -9 -4 -5 -7 4 -12 3 -12
-3 0 -5 4 -11 9 -13 5 -2 5 -13 0 -27 -9 -22 -11 -23 -27 -7 -10 9 -21 14 -24
11 -9 -9 2 -85 22 -165 21 -81 25 -151 15 -295 -5 -82 -4 -92 17 -120 20 -26
22 -42 23 -132 0 -75 -3 -99 -11 -92 -8 6 -13 0 -18 -21 -6 -30 -7 -31 -28
-16 -12 9 -32 16 -44 16 -11 0 -34 11 -50 25 -15 13 -42 29 -59 36 -16 6 -48
18 -70 27 -44 19 -70 22 -101 11 -17 -6 -23 -3 -27 12 -5 17 -13 20 -51 18
-46 -3 -61 -14 -28 -22 9 -3 5 -4 -9 -4 -15 1 -25 6 -23 12 3 6 -16 10 -48 11
-46 0 -189 10 -283 18 -16 2 -59 9 -94 15 -36 7 -114 14 -175 15 -61 2 -135 7
-163 11 -45 6 -53 5 -53 -9 0 -9 -4 -16 -10 -16 -5 0 -10 6 -10 14 0 12 -16
24 -42 31 -5 2 -28 3 -53 4 -43 1 -45 2 -39 26 3 14 -1 37 -10 56 -20 40 -20
55 0 63 8 3 12 11 8 17 -4 7 1 18 11 25 15 11 18 32 19 164 0 82 -2 150 -6
150 -4 0 -12 -9 -18 -20 -12 -23 -40 -16 -40 10 0 23 26 45 35 30 9 -15 25
-12 25 5 0 8 -4 15 -10 15 -15 0 -12 30 4 36 16 6 15 28 -4 69 -21 46 -17 228
6 322 3 12 -1 41 -10 65 -13 34 -17 103 -6 103 5 0 13 220 13 394 1 171 -1
195 -16 206 -17 12 -24 45 -9 45 4 0 15 -7 25 -14 23 -18 95 -9 126 15 25 20
51 25 51 11z m960 -10 c0 -5 -10 -17 -22 -28 -20 -18 -21 -18 -15 -1 4 10 7
23 7 28 0 5 7 9 15 9 8 0 15 -4 15 -8z m255 -129 c-16 -9 -25 -22 -25 -39 0
-21 -3 -23 -19 -15 -26 14 -31 44 -12 68 22 28 43 33 64 15 17 -15 17 -17 -8
-29z m699 22 c-4 -8 -10 -12 -15 -9 -14 8 -10 24 6 24 9 0 12 -6 9 -15z
m-2952 -227 c-12 -12 -35 -1 -27 12 3 5 13 6 21 3 10 -4 12 -9 6 -15z m2588 2
c0 -5 -4 -10 -10 -10 -5 0 -10 5 -10 10 0 6 5 10 10 10 6 0 10 -4 10 -10z
m-2160 -33 c0 -20 -1 -20 -16 -5 -9 9 -13 21 -9 27 10 16 25 3 25 -22z m1810
-107 c0 -5 -4 -10 -9 -10 -6 0 -13 5 -16 10 -3 6 1 10 9 10 9 0 16 -4 16 -10z
m750 -124 c0 -7 -9 -21 -20 -31 -18 -16 -20 -16 -26 -1 -4 10 1 25 11 36 18
20 35 18 35 -4z m-2185 -46 c3 -5 1 -10 -4 -10 -6 0 -11 5 -11 10 0 6 2 10 4
10 3 0 8 -4 11 -10z m-745 -295 c0 -25 -33 -55 -62 -55 -22 0 -48 27 -48 50 0
23 67 52 93 39 9 -6 17 -21 17 -34z m2849 -154 c11 -7 8 -13 -13 -26 -14 -10
-26 -24 -26 -31 0 -17 -5 -17 -31 -4 -25 14 -24 25 3 50 23 21 45 25 67 11z
m-502 -59 c9 -15 7 -21 -7 -30 -15 -9 -19 -7 -23 13 -7 38 10 48 30 17z m-7
-87 c0 -15 11 -19 39 -16 7 2 10 -2 7 -8 -4 -6 1 -22 10 -36 21 -32 5 -33 -42
-4 -26 16 -34 27 -34 50 0 16 5 29 10 29 6 0 10 -7 10 -15z m-2397 -128 c-3
-5 -10 -4 -15 1 -6 6 -7 16 -3 22 6 9 9 9 16 -1 4 -7 5 -17 2 -22z m676 -36
c8 -5 9 -11 3 -15 -5 -3 -15 1 -22 9 -14 16 -3 20 19 6z m-272 -57 c-9 -9 -28
6 -21 18 4 6 10 6 17 -1 6 -6 8 -13 4 -17z m2466 11 c18 -13 18 -14 -2 -24
-11 -6 -29 -11 -40 -11 -11 0 -22 -9 -26 -20 -8 -24 -18 -25 -34 -6 -23 28 20
74 69 75 8 0 23 -6 33 -14z m287 -14 c0 -19 -22 -23 -38 -7 -15 15 -14 16 11
16 15 0 27 -4 27 -9z m-3136 -59 c-16 -23 -19 -24 -22 -9 -2 10 4 27 14 39 25
27 31 5 8 -30z m2867 -166 c-16 -17 -18 -25 -9 -34 9 -9 9 -12 1 -12 -16 0
-43 29 -43 45 0 14 49 36 63 28 5 -3 -1 -15 -12 -27z m-291 -36 c0 -5 -4 -10
-10 -10 -5 0 -10 5 -10 10 0 6 5 10 10 10 6 0 10 -4 10 -10z m574 -11 c-3 -5
-10 -7 -15 -3 -5 3 -7 10 -3 15 3 5 10 7 15 3 5 -3 7 -10 3 -15z m-837 -11
c-3 -8 -6 -5 -6 6 -1 11 2 17 5 13 3 -3 4 -12 1 -19z m683 -53 c0 -16 -27 -32
-37 -22 -3 4 -3 13 0 22 8 20 37 20 37 0z m-2440 -12 c-1 -20 -19 -35 -35 -29
-14 5 -15 9 -5 21 13 16 40 21 40 8z m2590 -22 c0 -6 -4 -13 -10 -16 -6 -4 -4
-16 6 -31 11 -16 12 -24 5 -24 -13 0 -42 60 -35 72 7 11 34 10 34 -1z m-690
-51 c0 -5 -4 -10 -9 -10 -6 0 -13 5 -16 10 -3 6 1 10 9 10 9 0 16 -4 16 -10z
m231 -113 c-1 -12 -15 -9 -19 4 -3 6 1 10 8 8 6 -3 11 -8 11 -12z m-1854 -25
c-10 -10 -17 -25 -17 -33 0 -25 -24 -50 -39 -40 -11 7 -10 13 3 33 9 14 13 27
10 31 -12 11 7 27 33 27 25 0 25 -1 10 -18z m-262 -2 c3 -5 1 -10 -4 -10 -6 0
-11 5 -11 10 0 6 2 10 4 10 3 0 8 -4 11 -10z m1680 -18 c-7 -8 -35 7 -35 18 0
6 7 6 20 -2 10 -7 17 -14 15 -16z m1085 7 c0 -5 -4 -9 -8 -9 -5 0 -9 7 -9 15
0 8 4 12 9 9 4 -3 8 -9 8 -15z m-3165 -48 c7 -12 -12 -24 -25 -16 -11 7 -4 25
10 25 5 0 11 -4 15 -9z m2310 -21 c3 -5 1 -10 -4 -10 -6 0 -11 5 -11 10 0 6 2
10 4 10 3 0 8 -4 11 -10z m135 -5 c0 -8 -4 -15 -10 -15 -5 0 -7 7 -4 15 4 8 8
15 10 15 2 0 4 -7 4 -15z m125 -15 c3 -5 1 -10 -4 -10 -6 0 -11 5 -11 10 0 6
2 10 4 10 3 0 8 -4 11 -10z m-1776 -91 c-12 -21 -14 -22 -17 -6 -6 28 6 53 19
40 8 -8 7 -18 -2 -34z m-629 -9 c0 -11 -4 -20 -10 -20 -5 0 -10 9 -10 20 0 11
5 20 10 20 6 0 10 -9 10 -20z m890 5 c-12 -15 -30 -12 -30 6 0 5 10 9 21 9 18
0 19 -2 9 -15z m190 5 c0 -5 -2 -10 -4 -10 -3 0 -8 5 -11 10 -3 6 -1 10 4 10
6 0 11 -4 11 -10z m1365 -9 c3 -5 1 -12 -5 -16 -5 -3 -10 1 -10 9 0 18 6 21
15 7z m-2485 -11 c0 -5 -5 -10 -11 -10 -5 0 -7 5 -4 10 3 6 8 10 11 10 2 0 4
-4 4 -10z m1710 -36 c0 -2 -7 -4 -15 -4 -8 0 -15 4 -15 10 0 5 7 7 15 4 8 -4
15 -8 15 -10z m817 10 c-3 -3 -12 -4 -19 -1 -8 3 -5 6 6 6 11 1 17 -2 13 -5z
m368 -4 c3 -5 2 -10 -4 -10 -5 0 -13 5 -16 10 -3 6 -2 10 4 10 5 0 13 -4 16
-10z m-1281 -35 c-4 -8 -12 -15 -20 -15 -8 0 -14 7 -14 15 0 8 9 15 20 15 13
0 18 -5 14 -15z m696 -1 c0 -8 -4 -12 -10 -9 -5 3 -10 10 -10 16 0 5 5 9 10 9
6 0 10 -7 10 -16z m-2343 -20 c-9 -9 -28 6 -21 18 4 6 10 6 17 -1 6 -6 8 -13
4 -17z m1263 6 c0 -5 -4 -10 -10 -10 -5 0 -10 5 -10 10 0 6 5 10 10 10 6 0 10
-4 10 -10z m1050 0 c0 -5 -4 -10 -10 -10 -5 0 -10 5 -10 10 0 6 5 10 10 10 6
0 10 -4 10 -10z m-820 -80 c0 -5 -4 -10 -9 -10 -6 0 -13 5 -16 10 -3 6 1 10 9
10 9 0 16 -4 16 -10z m1010 -36 c0 -3 -5 -14 -11 -25 -5 -11 -11 -38 -11 -60
0 -42 -8 -48 -32 -23 -22 22 -24 77 -4 102 10 12 58 17 58 6z m-2492 -42 c0
-31 -12 -42 -38 -35 -27 7 -32 41 -8 57 27 19 45 11 46 -22z m459 -8 c-9 -9
-28 6 -21 18 4 6 10 6 17 -1 6 -6 8 -13 4 -17z m1447 10 c9 -3 14 -10 11 -15
-7 -10 -35 0 -35 12 0 11 3 11 24 3z m-1464 -85 c0 -11 -27 -12 -34 0 -3 4 -3
11 0 14 8 8 34 -3 34 -14z m993 -81 c-3 -18 -12 -28 -23 -28 -27 0 -32 28 -9
51 25 25 39 14 32 -23z m-963 -4 c0 -8 -7 -14 -15 -14 -8 0 -15 9 -15 20 0 13
5 18 15 14 8 -4 15 -12 15 -20z m1424 -88 c-3 -8 -12 -17 -20 -20 -8 -3 -14
-15 -14 -26 0 -21 -33 -29 -45 -10 -12 20 6 71 28 79 27 11 58 -4 51 -23z
m-1999 -36 c3 -5 1 -10 -4 -10 -6 0 -11 5 -11 10 0 6 2 10 4 10 3 0 8 -4 11
-10z m-25 -20 c0 -5 -2 -10 -4 -10 -3 0 -8 5 -11 10 -3 6 -1 10 4 10 6 0 11
-4 11 -10z m2347 -26 c9 -23 -11 -38 -26 -20 -13 16 -7 36 10 36 5 0 12 -7 16
-16z m-642 -24 c-3 -5 -13 -6 -21 -3 -12 4 -13 8 -3 14 15 9 32 2 24 -11z
m1480 -125 c-3 -65 -12 -66 -11 -1 0 30 4 52 7 50 3 -2 5 -24 4 -49z m-3545
10 c0 -8 -2 -15 -4 -15 -2 0 -6 7 -10 15 -3 8 -1 15 4 15 6 0 10 -7 10 -15z
m845 -185 c3 -5 1 -10 -4 -10 -6 0 -11 5 -11 10 0 6 2 10 4 10 3 0 8 -4 11
-10z m192 -52 c-3 -7 -5 -2 -5 12 0 14 2 19 5 13 2 -7 2 -19 0 -25z m1841 -42
c3 -12 -1 -17 -10 -14 -7 3 -15 13 -16 22 -3 12 1 17 10 14 7 -3 15 -13 16
-22z m-28 -28 c0 -4 -9 -8 -21 -8 -11 0 -18 4 -15 8 3 5 12 9 21 9 8 0 15 -4
15 -9z m-2215 -8 c3 -5 1 -10 -4 -10 -6 0 -11 5 -11 10 0 6 2 10 4 10 3 0 8
-4 11 -10z m-355 -57 c0 -16 -6 -23 -19 -23 -22 0 -34 23 -20 37 18 18 39 10
39 -14z m2399 -22 c-15 -5 -22 6 -14 19 6 9 10 9 16 -1 5 -8 4 -15 -2 -18z
m51 -15 c0 -8 -9 -18 -20 -21 -12 -4 -29 -15 -39 -26 -16 -17 -20 -18 -30 -5
-21 25 -9 51 21 48 14 -2 29 2 33 7 9 16 35 13 35 -3z m-2609 -136 c20 -11 25
-35 9 -45 -5 -3 -21 2 -35 11 -20 13 -23 19 -14 30 14 17 15 17 40 4z m3173
-51 c-6 -11 -24 -2 -24 11 0 5 7 7 15 4 8 -4 12 -10 9 -15z m-24 -29 c0 -11
-4 -20 -10 -20 -5 0 -10 -9 -10 -20 0 -24 -13 -26 -34 -5 -12 13 -13 21 -4 40
14 32 58 35 58 5z m88 -171 c-2 -6 -8 -10 -13 -10 -5 0 -11 4 -13 10 -2 6 4
11 13 11 9 0 15 -5 13 -11z m-213 -9 c3 -5 1 -10 -4 -10 -6 0 -11 5 -11 10 0
6 2 10 4 10 3 0 8 -4 11 -10z m-2355 -10 c8 -5 11 -10 5 -10 -5 0 -17 5 -25
10 -8 5 -10 10 -5 10 6 0 17 -5 25 -10z m2020 -10 c9 -16 8 -20 -5 -20 -8 0
-15 9 -15 20 0 11 2 20 5 20 2 0 9 -9 15 -20z m67 -7 c6 -16 -35 -23 -41 -8
-3 8 0 16 7 19 16 6 30 2 34 -11z m-1893 -92 c3 -5 0 -11 -8 -14 -15 -6 -26 1
-26 15 0 11 27 10 34 -1z m-212 -43 c-12 -12 -35 -1 -27 12 3 5 13 6 21 3 10
-4 12 -9 6 -15z m-722 -34 c0 -16 -26 -19 -35 -4 -3 6 -4 14 0 20 8 13 35 1
35 -16z m3180 -52 c0 -11 -8 -26 -18 -35 -16 -14 -21 -15 -36 -4 -15 11 -17
17 -7 35 15 28 61 31 61 4z m-2410 -1 c0 -6 -4 -13 -10 -16 -5 -3 -10 1 -10 9
0 9 5 16 10 16 6 0 10 -4 10 -9z m30 -91 c0 -5 -2 -10 -4 -10 -3 0 -8 5 -11
10 -3 6 -1 10 4 10 6 0 11 -4 11 -10z m-170 -61 c0 -6 -4 -7 -10 -4 -5 3 -10
11 -10 16 0 6 5 7 10 4 6 -3 10 -11 10 -16z m-165 -9 c-3 -5 -10 -10 -16 -10
-5 0 -9 5 -9 10 0 6 7 10 16 10 8 0 12 -4 9 -10z m385 -8 c0 -13 -12 -22 -22
-16 -10 6 -1 24 13 24 5 0 9 -4 9 -8z m-774 -43 c14 -16 15 -23 7 -26 -7 -3
-13 -11 -13 -19 0 -17 -22 -18 -38 -2 -21 21 -8 68 18 68 4 0 15 -10 26 -21z
m3044 1 c0 -5 -7 -7 -15 -4 -8 4 -12 10 -9 15 6 11 24 2 24 -11z m288 -102
c-5 -16 -48 -24 -48 -10 0 11 17 20 38 21 8 1 12 -5 10 -11z m-2858 -29 c0
-11 -27 -12 -34 0 -3 4 -3 11 0 14 8 8 34 -3 34 -14z m-121 -13 c11 -7 11 -10
-3 -18 -19 -11 -36 -3 -36 17 0 14 17 15 39 1z m-345 -72 c20 -8 21 -30 1 -38
-8 -3 -19 3 -25 14 -17 31 -10 37 24 24z m-144 -84 c0 -13 -7 -20 -20 -20 -19
0 -27 20 -13 33 13 14 33 6 33 -13z m715 -20 c3 -5 -3 -10 -15 -10 -12 0 -18
5 -15 10 3 6 10 10 15 10 5 0 12 -4 15 -10z m344 -90 c-2 -62 -7 -80 -20 -80
-10 0 -12 82 -3 130 10 48 25 16 23 -50z m1521 0 c0 -5 -4 -10 -10 -10 -5 0
-10 5 -10 10 0 6 5 10 10 10 6 0 10 -4 10 -10z m-2270 -10 c0 -5 -7 -7 -15 -4
-8 4 -15 8 -15 10 0 2 7 4 15 4 8 0 15 -4 15 -10z m-310 -20 c0 -5 -4 -10 -10
-10 -5 0 -10 5 -10 10 0 6 5 10 10 10 6 0 10 -4 10 -10z m3217 -56 c-3 -3 -12
-4 -19 -1 -8 3 -5 6 6 6 11 1 17 -2 13 -5z m-2207 -44 c0 -5 -2 -10 -4 -10 -3
0 -8 5 -11 10 -3 6 -1 10 4 10 6 0 11 -4 11 -10z m2021 -13 c-1 -12 -15 -9
-19 4 -3 6 1 10 8 8 6 -3 11 -8 11 -12z m-2366 -35 c-3 -3 -11 0 -18 7 -9 10
-8 11 6 5 10 -3 15 -9 12 -12z m-90 -21 c3 -5 1 -12 -5 -16 -5 -3 -10 1 -10 9
0 18 6 21 15 7z m339 -43 c17 -24 13 -38 -13 -38 -20 0 -64 43 -54 53 14 15
53 6 67 -15z m-344 -4 c0 -8 -4 -12 -10 -9 -5 3 -10 10 -10 16 0 5 5 9 10 9 6
0 10 -7 10 -16z m50 -304 c-18 -11 -24 -6 -16 16 5 14 9 15 19 5 9 -9 9 -14
-3 -21z m-283 -7 c2 -6 -4 -18 -13 -28 -17 -17 -19 -16 -36 5 -14 17 -15 26
-7 36 11 14 50 5 56 -13z m727 -23 c14 -76 17 -176 8 -200 -10 -23 -11 -21
-12 20 -1 25 -4 85 -6 135 -5 91 -1 108 10 45z m2301 10 c-3 -5 -10 -10 -16
-10 -5 0 -9 5 -9 10 0 6 7 10 16 10 8 0 12 -4 9 -10z m-11 -99 c3 -5 0 -11 -8
-14 -15 -6 -26 1 -26 15 0 11 27 10 34 -1z m-259 -62 c10 -14 -21 -46 -50 -51
-28 -6 -40 14 -25 43 12 21 64 27 75 8z m-2875 -94 c0 -8 -4 -15 -10 -15 -5 0
-10 7 -10 15 0 8 5 15 10 15 6 0 10 -7 10 -15z m758 -20 c3 -2 2 -15 -2 -28
-7 -29 -33 -42 -51 -27 -14 11 -25 56 -17 65 5 5 63 -3 70 -10z"/>
<path d="M5611 8935 c1 -11 4 -33 8 -48 l6 -28 11 35 c6 19 7 33 3 30 -4 -2
-12 4 -18 13 -10 17 -10 16 -10 -2z"/>
<path d="M4290 8911 c0 -5 7 -11 15 -15 9 -3 15 0 15 9 0 8 -7 15 -15 15 -8 0
-15 -4 -15 -9z"/>
<path d="M5628 8825 c-3 -14 -1 -28 3 -31 5 -3 9 9 9 25 0 38 -6 40 -12 6z"/>
<path d="M8812 10530 c0 -14 2 -19 5 -12 2 6 2 18 0 25 -3 6 -5 1 -5 -13z"/>
<path d="M8817 10483 c-3 -5 -4 -28 -2 -53 1 -25 0 -49 -4 -55 -3 -5 -7 -21
-8 -35 -1 -14 0 -19 3 -12 3 6 9 10 13 7 5 -2 9 31 10 75 2 74 -1 91 -12 73z"/>
<path d="M7682 10440 c0 -14 2 -19 5 -12 2 6 2 18 0 25 -3 6 -5 1 -5 -13z"/>
<path d="M8820 10309 c0 -5 -3 -8 -7 -6 -5 3 -8 -35 -8 -84 -1 -85 8 -116 17
-65 7 37 10 166 4 166 -3 0 -6 -5 -6 -11z"/>
<path d="M8811 9874 c0 -11 3 -14 6 -6 3 7 2 16 -1 19 -3 4 -6 -2 -5 -13z"/>
<path d="M12844 9775 c0 -55 1 -76 3 -47 2 29 2 74 0 100 -2 26 -3 2 -3 -53z"/>
<path d="M8811 9574 c0 -11 3 -14 6 -6 3 7 2 16 -1 19 -3 4 -6 -2 -5 -13z"/>
<path d="M10211 9272 c2 -23 7 -42 11 -42 5 0 6 17 2 38 -9 52 -16 54 -13 4z"/>
<path d="M11446 9284 c-7 -17 -8 -110 -2 -103 5 5 15 119 11 119 -2 0 -6 -7
-9 -16z"/>
<path d="M10210 9179 c0 -5 5 -7 10 -4 6 3 10 8 10 11 0 2 -4 4 -10 4 -5 0
-10 -5 -10 -11z"/>
<path d="M8819 8594 c-4 -37 4 -134 11 -139 8 -5 3 135 -5 143 -3 3 -5 1 -6
-4z"/>
<path d="M6703 8165 c0 -8 4 -12 9 -9 5 3 6 10 3 15 -9 13 -12 11 -12 -6z"/>
<path d="M8814 8080 c2 -8 7 -39 10 -69 7 -75 16 -76 11 -1 -2 35 -9 68 -15
74 -8 8 -10 7 -6 -4z"/>
<path d="M12833 8035 c0 -22 2 -30 4 -17 2 12 2 30 0 40 -3 9 -5 -1 -4 -23z"/>
<path d="M12833 7975 c0 -8 4 -15 9 -15 4 0 8 4 8 9 0 6 -4 12 -8 15 -5 3 -9
-1 -9 -9z"/>
<path d="M8831 7924 c0 -11 3 -14 6 -6 3 7 2 16 -1 19 -3 4 -6 -2 -5 -13z"/>
<path d="M5325 7550 c-7 -11 41 -63 54 -58 5 1 -3 17 -19 35 -16 18 -32 28
-35 23z"/>
<path d="M7708 7345 c-2 -19 0 -35 4 -35 4 0 8 16 8 35 0 19 -2 35 -4 35 -2 0
-6 -16 -8 -35z"/>
<path d="M7698 7277 c-3 -13 -1 -32 2 -43 5 -14 8 -7 11 24 5 44 -5 59 -13 19z"/>
<path d="M13950 7282 c0 -11 4 -23 9 -27 6 -3 8 4 6 16 -6 30 -15 37 -15 11z"/>
<path d="M8835 6931 c0 -33 2 -62 5 -64 3 -3 5 24 6 59 0 35 -3 64 -6 64 -3 0
-6 -27 -5 -59z"/>
<path d="M8845 6765 c4 -53 42 -191 50 -183 2 2 -5 35 -16 73 -11 39 -24 93
-29 120 l-9 50 4 -60z"/>
<path d="M12816 6798 c-2 -7 -10 -49 -19 -93 -8 -44 -18 -89 -22 -100 -6 -16
-5 -17 4 -5 15 21 55 210 45 210 -3 0 -6 -6 -8 -12z"/>
<path d="M7735 6473 c2 -29 48 -164 66 -192 7 -11 8 -6 2 19 -4 19 -7 47 -8
63 0 15 -3 27 -7 27 -4 0 -5 9 -3 20 2 11 0 18 -5 15 -5 -3 -14 13 -21 35 -14
46 -27 53 -24 13z"/>
<path d="M13921 6484 c0 -11 3 -14 6 -6 3 7 2 16 -1 19 -3 4 -6 -2 -5 -13z"/>
<path d="M13897 6440 c-9 -11 -17 -27 -17 -35 0 -8 -4 -15 -8 -15 -4 0 -9 -15
-10 -32 -7 -88 -69 -235 -192 -451 -18 -32 -30 -60 -27 -63 3 -3 13 9 22 27
10 18 33 55 53 83 44 62 110 203 147 311 66 196 71 220 32 175z"/>
<path d="M3001 6224 c0 -11 3 -14 6 -6 3 7 2 16 -1 19 -3 4 -6 -2 -5 -13z"/>
<path d="M7867 6113 c34 -82 82 -169 104 -188 l23 -20 -21 30 c-11 17 -42 72
-68 123 -49 96 -65 119 -38 55z"/>
<path d="M7990 5893 c0 -6 9 -21 21 -34 l20 -24 -17 30 c-24 39 -24 40 -24 28z"/>
<path d="M3021 5274 c0 -11 3 -14 6 -6 3 7 2 16 -1 19 -3 4 -6 -2 -5 -13z"/>
<path d="M4201 5173 c0 -40 2 -73 7 -73 4 0 6 24 4 52 -5 89 -9 97 -11 21z"/>
<path d="M4209 5083 c-5 -28 -4 -63 2 -63 4 0 7 16 7 35 0 31 -6 48 -9 28z"/>
<path d="M4200 4999 c0 -5 5 -7 10 -4 6 3 10 8 10 11 0 2 -4 4 -10 4 -5 0 -10
-5 -10 -11z"/>
<path d="M3906 4937 c22 -13 261 -14 273 -2 7 7 -38 10 -139 10 -87 0 -143 -3
-134 -8z"/>
</g>
</svg>
